<svg xmlns="http://www.w3.org/2000/svg" data-name="Isolation Mode" viewBox="0 0 951.55 1202.04"><defs><style>.cls-1{fill:#edded0;}</style></defs><title>wcu-2</title><path class="cls-1" d="M1104.71,2765.51C1026,2643.91,950.79,2502.09,788.56,2496c-21.64-.81-228.82-13.12-333.32,133-41.32,57.79-67.88,124.7-99.63,188.2-67,134-81,284.22-77.2,431.91,3.24,126.16,11.77,264.27,102.8,361.95,98.13,105.29,224.84,87.91,354.49,80.71,119-6.62,243.85-12.76,337.66-95.55,70.56-62.26,111.8-151.17,133.84-241.23,23.52-96.12,27.31-197.26,16.24-295.41-5.15-45.6-13.66-90.93-26.47-135-18.51-63.7-57.06-104.62-92.26-159h0" transform="translate(-277.84 -2495.39)"></path><path d="M766.4,3484.64c-17.89,0-35.69-.6-52.82-1.81-13-.91-26.7-1.52-41.25-2.17-61.61-2.74-131.44-5.84-158.07-35-8.12-8.89-11.94-19.82-11.35-32.48,2-43.91,1.78-70.26,1.48-100.78-.37-37.17-.82-83.43,2.87-178.52a3.67,3.67,0,0,1,1.71-3c15-9.49,120.2-18.2,209-20.83,70.16-2.08,189.73-2.44,213.28,17.77a3.78,3.78,0,0,1,.43.26c14.52,10.18,11.28,43,7.18,84.55-3.41,34.59-7.28,73.8-.95,104.95,24.13,118.63,18.4,127.31,16.24,130.58-11.36,17.22-60.55,26.26-88.86,30.12a749.09,749.09,0,0,1-98.92,6.32M514.51,3136.31c-3.59,93.47-3.14,139.21-2.78,176,.3,30.62.56,57.08-1.49,101.19-.5,10.8,2.59,19.69,9.44,27.19,24.57,26.91,92.79,29.94,153,32.62,14.59.65,28.37,1.26,41.43,2.18,49.19,3.47,103.95,1.84,150.24-4.47,45.4-6.18,76.7-16.23,83.72-26.88.5-.76,2.75-6.31-2.15-40.93-3-21.09-8.09-49.4-15.15-84.15-6.56-32.23-2.63-72,.84-107.14,3.43-34.72,6.67-67.59-2.94-76.86a3.72,3.72,0,0,1-1.41-.94c-12.69-13.75-92.78-20.15-209-16.71C614.8,3120.49,530.5,3129.6,514.51,3136.31Z" transform="translate(-277.84 -2495.39)"></path><path d="M503,3629.38h-.58c-4.71-.19-8.22-1.69-10.75-4.58-7.73-8.87-5.65-30.33-.08-87.69,3.06-31.58,7.26-74.83,11.32-132.07a3.67,3.67,0,1,1,7.32.52c-4.07,57.34-8.27,100.64-11.34,132.26-4.88,50.38-7.34,75.67-1.68,82.15.77.89,2.1,1.94,5.51,2.07,6.81.25,14.16-10.12,21.89-30.88s15-49.07,23.38-81.89c3.32-13,6.75-26.37,10.4-40a3.67,3.67,0,1,1,7.09,1.9c-3.64,13.6-7.07,27-10.38,39.93-17.57,68.58-30.31,118.29-52.1,118.3" transform="translate(-277.84 -2495.39)"></path><path d="M939.05,3637.71c-.7,0-1.42,0-2.14-.06-6.67-.36-11-4.16-13.32-11.61-1.9-6.18-2.58-14.86-3.51-26.87s-2.12-27.12-5-45.64a311.64,311.64,0,0,0-24.25-81,3.67,3.67,0,1,1,6.7-3,319.25,319.25,0,0,1,24.81,82.93c2.93,18.79,4.12,34,5.07,46.19,1.82,23.28,2.81,31.35,9.91,31.73,7.27.39,12.77-1.58,16.82-6,15.8-17.4,8-69.42,1-115.31-4.27-28.31-8.31-55-7.22-73.94a3.67,3.67,0,1,1,7.33.43c-1,18.13,2.93,44.49,7.15,72.41,7.53,49.83,15.31,101.36-2.84,121.34-5.13,5.65-12,8.5-20.5,8.5" transform="translate(-277.84 -2495.39)"></path><path d="M710.62,3583.84a21.85,21.85,0,0,1-6.26-.91c-8.65-2.57-15.11-10.32-17.3-20.72-3.94-18.75-7.86-41.57-9.84-81.31a3.67,3.67,0,0,1,7.34-.37c2,39.24,5.81,61.72,9.68,80.17,1.63,7.72,6.19,13.41,12.21,15.2,6.3,1.87,13.58-.72,20-7.12C737,3558.24,745.29,3513,750.27,3486a3.67,3.67,0,1,1,7.22,1.33c-7.23,39.25-14.65,75.41-25.87,86.63-6.46,6.45-13.84,9.87-21,9.87" transform="translate(-277.84 -2495.39)"></path><path d="M690.64,3114.39h0a3.77,3.77,0,0,1-1.06-.15c-37-10.87-53.69-63.57-57.73-93-6.2-45.08.9-74.6,8.42-105.85,7-29,14.89-61.9,13.32-112.79-.79-25.49-3.74-62.18-6.11-91.66-4.38-54.5-4.18-56.4-2.23-58.51a3.8,3.8,0,0,1,2.8-1.24,3.84,3.84,0,0,1,2.62,1c22,20.31,41.28,111.52,45.82,142.45,11.34,77.4,5.29,148.74-1.13,224.26q-.76,9.09-1.54,18.28c-.17,2.06.1,14.85.37,27.22,1,46.89.76,47.15-.89,48.83a3.81,3.81,0,0,1-2.66,1.12m-39.19-449.52c.53,10.37,1.95,28.13,3.35,45.48,2.38,29.56,5.33,66.35,6.13,92,1.6,51.88-6.43,85.27-13.52,114.73-7.67,31.89-14.3,59.43-8.29,103.14,1.16,8.43,5,30.32,16,51.49,6.3,12.21,16.86,27.49,32.33,34,.15-8.4-.27-27.55-.56-41.09-.34-15.84-.54-25.67-.35-28q.78-9.2,1.55-18.29c6.37-75.09,12.4-146,1.17-222.58C684.19,2761.39,668.26,2691.38,651.45,2664.87Z" transform="translate(-277.84 -2495.39)"></path><path d="M696.32,3114.29h-.06a3.72,3.72,0,0,1-3.21-1.95c-11.48-21.43-6.59-53.27-3-76.52.24-1.57.48-3.11.71-4.61,5.9-39.15,17.56-77.3,28.84-114.2,5.84-19.1,11.88-38.86,17-58.46,15.74-60,31-129.64,24.64-191.54-1.52-14.83-4.18-43.26-6.14-64.49C754,2590.8,753,2580,752.3,2572c-.36-4-.66-7.18-.86-9.42-.45-5.08-.45-5.08.63-6.28a3.71,3.71,0,0,1,2.77-1.21,3.66,3.66,0,0,1,2.74,1.28c27.78,32.48,34.64,100.26,38.33,136.67l.45,4.43c7.3,71.21,6.6,125.57-2.26,176.27-9.19,52.55-27.21,102.35-58.43,161.48-2.18,4.11-11.62,24.55-19.95,42.59-4.11,8.91-8.08,17.49-11,23.85-1.49,3.19-2.73,5.82-3.61,7.66-1.72,3.58-2.38,4.94-4.75,4.94M759.66,2572c2.18,23.94,6.74,73.35,8.88,94.29,6.46,63.07-8.93,133.54-24.84,194.15-5.18,19.75-11.24,39.57-17.1,58.75-11.2,36.64-22.78,74.53-28.61,113.14-.22,1.51-.46,3-.7,4.64-3,19.66-7,45.75-.76,64.85,3.15-6.72,8-17.29,12.53-27,8.78-19,17.85-38.65,20.11-42.94,58.91-111.52,74-195.7,59.89-333.58l-.45-4.43C785.38,2661.94,779.66,2605.51,759.66,2572Z" transform="translate(-277.84 -2495.39)"></path><path d="M723,3117.12c-7.18,0-10.43-3.2-11.89-5.89-6.68-12.27,9.57-39.18,31.51-73.09,4.23-6.54,8.22-12.71,11.05-17.5,7.64-12.9,15.29-26.26,22.68-39.19,18-31.55,36.71-64.17,57.56-94.22,24.91-35.91,45-106.58,62.7-168.94,6.27-22.07,12.19-42.93,18.16-61.85a3.66,3.66,0,0,1,3.48-2.56h0a3.68,3.68,0,0,1,3.49,2.52c13,39.51-23.2,204.39-34,242.35-8.41,29.42-66.27,174.7-98.06,212.45-3.8,4.52-11,4.57-26.79,4.69-9.2.06-21.79.15-38.14,1.18-.6,0-1.17,0-1.72,0M917.11,2673.9c-4.39,14.6-8.81,30.16-13.42,46.39-17.87,62.91-38.12,134.22-63.73,171.13-20.67,29.78-39.25,62.27-57.22,93.68-7.4,12.94-15.06,26.33-22.73,39.28-2.91,4.91-6.94,11.15-11.21,17.75-8.1,12.53-17.29,26.73-23.82,39.39-9.17,17.79-8.57,24.05-7.4,26.21.27.5,1.12,2.05,5.44,2.05.4,0,.82,0,1.26,0,16.55-1,29.27-1.13,38.55-1.2,11.38-.08,19.6-.14,21.23-2.07,30.55-36.28,88.55-181.54,96.61-209.74C892.3,2856.05,919.75,2726.41,917.11,2673.9Z" transform="translate(-277.84 -2495.39)"></path><path d="M633,3120.36a3.48,3.48,0,0,1-1.3-.24c-40.66-15.37-46.6-63.45-53.48-119.12-2.63-21.3-5.35-43.33-10.12-65.75-10.06-47.3-44.75-121.64-59.56-153.38-2.18-4.68-3.91-8.37-5.09-11-2.11-4.67-2.75-6.08-1.18-8a3.84,3.84,0,0,1,3.32-1.4c1.78.15,3.06.26,13,13.87,5.75,7.88,13.15,18.6,21.4,31,18.88,28.42,38.06,59.44,51.3,83,3.53,6.27,7.14,12.37,10.62,18.27,15.35,26,29.84,50.47,34.73,84.17a3.67,3.67,0,0,1-7.27,1.06c-4.68-32.27-18.81-56.18-33.78-81.49-3.5-5.94-7.13-12.07-10.7-18.41-19-33.82-45.87-75.39-63.55-101,16.79,36.3,45,99.4,54,141.77,4.84,22.73,7.58,44.91,10.23,66.37,6.86,55.51,12.27,99.35,48.79,113.16a3.67,3.67,0,0,1-1.3,7.1" transform="translate(-277.84 -2495.39)"></path><path d="M818.29,2922a3.76,3.76,0,0,1-1.49-.31,3.67,3.67,0,0,1-1.87-4.84c27.7-62.63,31.73-178.87,21.08-236.66-.29,1.94-.58,3.91-.86,5.82-1.87,12.81-4,27.33-5.44,33.83-1.67,7.48-3.32,16.31-5.23,26.54C819,2776,812.09,2812.85,799,2847.52a3.67,3.67,0,0,1-6.87-2.59c12.83-34.06,19.64-70.56,25.11-99.88,1.92-10.29,3.57-19.18,5.27-26.79,1.4-6.24,3.49-20.61,5.35-33.29.9-6.21,1.76-12.08,2.45-16.37.37-2.33.67-4,.9-5.24.37-1.84.92-4.61,3.85-4.85a3.73,3.73,0,0,1,3.86,2.63c8.14,25.69,11.57,72.83,9,123-2.86,54.94-12.43,104.39-26.26,135.67a3.67,3.67,0,0,1-3.36,2.18" transform="translate(-277.84 -2495.39)"></path><path d="M734.38,2880.78a3.66,3.66,0,0,1-3.65-3.29c-.82-8.06-1.65-17.2-2.52-26.88-5.4-59.89-13.3-147.52-40.87-199.17,1.43,8.92,3.2,19.72,4.61,28.31s2.71,16.58,3.46,21.26c6.75,42.51,9.52,101.54,7.41,157.91a3.67,3.67,0,1,1-7.34-.28c2.1-55.91-.64-114.41-7.32-156.48-.75-4.67-2-12.51-3.46-21.22-1.66-10.16-3.55-21.68-5-30.57-.71-4.46-1.31-8.28-1.71-11-.79-5.32-1-7.11,1.67-8.25a3.68,3.68,0,0,1,4.39,1.22c36.31,49.69,45.41,150.74,51.44,217.61.87,9.65,1.69,18.78,2.51,26.79a3.66,3.66,0,0,1-3.27,4,2.48,2.48,0,0,1-.38,0" transform="translate(-277.84 -2495.39)"></path><path d="M856.91,3116.44a3.67,3.67,0,0,1-2.42-6.43c31-27.32,39-82.53,46.09-131.24,3.73-25.82,7.26-50.21,14-66.92,18.48-46,37.92-96.56,44.78-117.88-3.91,5.26-9.92,14.48-18.92,30.65-10.37,18.65-20.13,38.4-22,42.94C898.7,2915.89,881,2966,863.93,3014.42c-11.5,32.6-23.4,66.31-35.76,99a3.67,3.67,0,0,1-6.87-2.6c12.34-32.62,24.22-66.29,35.71-98.85,17.12-48.52,34.83-98.7,54.64-147.19,2-4.9,12.28-25.7,23.07-45,21.92-39.21,27.49-39.78,30.17-40.06a3.9,3.9,0,0,1,3.52,1.54c1.7,2.26,2.93,3.88-18.12,59.39-12.93,34.11-27.31,69.94-28.91,73.92-6.4,15.9-9.86,39.86-13.54,65.23-7.23,50-15.43,106.6-48.5,135.7a3.7,3.7,0,0,1-2.43.92" transform="translate(-277.84 -2495.39)"></path><path d="M569.55,3123.49a3.66,3.66,0,0,1-3.35-2.16c-13.59-30.11-21.8-66.84-33.17-117.69-3.58-16-7.62-34.07-12.23-53.69-7.8-33.22-13.73-61.89-17.66-80.86-2.46-11.92-4.24-20.54-5.08-23.43a3.71,3.71,0,0,1,2.3-4.52c3-1,4.23,1.19,5.82,4,.87,1.53,2.1,3.75,3.58,6.46,3.24,5.93,7.28,13.44,11.08,20.62,6.15,11.59,17,32.35,20.66,41.09,13.59,32.5,25.29,73.24,35.62,109.18,12.64,44,24.58,85.52,35.21,94.18a3.67,3.67,0,1,1-4.64,5.69c-12.41-10.11-23.54-48.82-37.63-97.84-10.27-35.75-21.91-76.27-35.33-108.38-3.59-8.58-15.12-30.7-24.22-47.7,3.92,18.93,9.78,47.18,17.44,79.82,4.61,19.65,8.66,37.77,12.24,53.76,11.28,50.42,19.42,86.85,32.7,116.27a3.68,3.68,0,0,1-3.34,5.18" transform="translate(-277.84 -2495.39)"></path><path d="M888.57,3119.68a3.67,3.67,0,0,1-1.51-7c17.67-8,45.47-44.66,76.25-100.64,20.61-37.48,37-73.6,45-95.7-13.35,16.73-34.82,44.31-42,54.07-8.51,11.54-23.42,34.52-39.21,58.85-24.57,37.87-50,77-59.21,85.57a3.67,3.67,0,1,1-5-5.4c8.56-7.9,34.85-48.42,58-84.17,15.84-24.42,30.81-47.49,39.45-59.21,4.81-6.52,17.59-23.07,30.39-39.36,6.43-8.19,12-15.18,16.05-20.22,2.24-2.77,4-4.91,5.23-6.36,2.24-2.66,3.73-4.41,6.36-3.27a3.72,3.72,0,0,1,2.16,4.07c-6.16,33.93-85.63,198.2-130.53,218.46a3.67,3.67,0,0,1-1.51.33" transform="translate(-277.84 -2495.39)"></path><path d="M609.47,2929.22a3.67,3.67,0,0,1-3.67-3.67c0-6.64-1.25-13.85-2.57-21.48a165,165,0,0,1-2.66-20.25c-.91-19.89-.85-39.92-.8-59.28.07-29.3.15-59.6-3.11-89.74-.18-1.64-1.39-8.75-2.78-17-7.48-44.06-7.23-44.31-5.33-46.21a3.77,3.77,0,0,1,3.41-1c1.91.4,2.57.9,7.91,11.35,2.21,4.31,4.82,9.65,5.17,10.57,8.81,22.9,13,43.75,17.86,70.71,1.76,9.66,3.64,19.5,5.46,29,8.29,43.32,16.86,88.12,16.86,132.66a3.67,3.67,0,0,1-7.34,0c0-43.85-8.5-88.3-16.73-131.28-1.82-9.54-3.71-19.41-5.47-29.1-4.83-26.56-8.91-47.08-17.49-69.38-.13-.32-.49-1.09-1-2.15,1.29,8.08,2.83,17.15,3.92,23.59,1.69,10,2.66,15.66,2.85,17.43,3.3,30.54,3.22,61,3.15,90.55-.05,19.28-.1,39.21.79,58.93a160.38,160.38,0,0,0,2.56,19.33c1.32,7.6,2.68,15.46,2.68,22.73a3.67,3.67,0,0,1-3.67,3.67" transform="translate(-277.84 -2495.39)"></path><path d="M932.75,3017.62a3.66,3.66,0,0,1-3.25-5.35c7.16-13.85,12.33-33.44,16.89-50.73,2.21-8.4,4.3-16.33,6.52-23.35,6-19.12,15.83-37,25.31-54.19l3.58-6.54c-14.22,12.86-35.86,34.39-46.88,54.23-9.09,16.38-24.32,43.79-31.5,79a3.67,3.67,0,0,1-7.2-1.47c7.42-36.32,23-64.35,32.29-81.09,9.4-16.94,25.87-34.61,38-46.45,7.25-7.07,13.44-12.53,17.35-15.87,7.83-6.69,9-7.72,11.56-6.38a3.7,3.7,0,0,1,1.56,4.92c-3.89,7.79-8.19,15.62-12.35,23.19-9.3,16.92-18.92,34.43-24.74,52.86-2.17,6.85-4.24,14.7-6.43,23-4.65,17.65-9.93,37.66-17.46,52.23a3.69,3.69,0,0,1-3.27,2" transform="translate(-277.84 -2495.39)"></path><path d="M917.5,2864.09a3.72,3.72,0,0,1-1.49-.31,3.67,3.67,0,0,1-1.86-4.85c10.34-23.26,15.41-61.45,16.64-80-8.43,15.93-23.94,49.33-32.28,75.62a3.67,3.67,0,1,1-7-2.22c4.81-15.17,13-35.64,22.59-56.15,14.53-31.23,17.34-32.22,18.68-32.69a3.87,3.87,0,0,1,3.44.41c1.87,1.24,2.62,3,2,14.06-.39,7.08-1.3,15.94-2.57,24.93-2,14.06-6.53,40.45-14.81,59.07a3.65,3.65,0,0,1-3.35,2.18" transform="translate(-277.84 -2495.39)"></path><path d="M782.33,2653.34c-6.06,0-10.91-2.84-14.38-4.86a16.54,16.54,0,0,0-3.91-1.94,3.67,3.67,0,0,1,.66-7.31c2.33.21,4.48,1.46,7,2.91,4,2.31,8.45,4.94,14.05,3.38a3.67,3.67,0,0,1,2,7.07,19.58,19.58,0,0,1-5.35.75" transform="translate(-277.84 -2495.39)"></path><path d="M773.25,2679.55a12,12,0,0,1-4.8-.94,3.67,3.67,0,1,1,2.94-6.73c2.17.95,5.92-.3,9.23-1.4,1.49-.49,2.9-1,4.28-1.29a3.67,3.67,0,1,1,1.69,7.15c-1.06.25-2.32.67-3.66,1.11-2.92,1-6.32,2.1-9.68,2.1" transform="translate(-277.84 -2495.39)"></path><path d="M773,2718.91a22,22,0,0,1-4.91-.51,3.67,3.67,0,0,1,1.68-7.15c5.42,1.28,15.26-1.38,22-4a3.67,3.67,0,1,1,2.68,6.83c-3.27,1.28-13.16,4.87-21.49,4.87" transform="translate(-277.84 -2495.39)"></path><path d="M777.81,2756.59c-3.22,0-6.49-.16-10-.47a3.67,3.67,0,0,1,.66-7.31,92.68,92.68,0,0,0,27.07-1.32,3.67,3.67,0,0,1,1.38,7.21,99.86,99.86,0,0,1-19.15,1.89" transform="translate(-277.84 -2495.39)"></path><path d="M764.68,2773.38a3.67,3.67,0,0,1-.84-7.24c10.16-2.4,20.76-5.31,28.91-12.12a3.67,3.67,0,1,1,4.7,5.63c-9.38,7.84-20.91,11-31.93,13.63a3.44,3.44,0,0,1-.84.1" transform="translate(-277.84 -2495.39)"></path><path d="M785.11,2852c-11.35,0-24.1-4.52-34.76-8.3l-3.69-1.3a3.67,3.67,0,0,1,2.41-6.93c1.2.41,2.45.86,3.74,1.31,11.65,4.13,27.61,9.79,38.49,7.22a3.67,3.67,0,1,1,1.69,7.14,34.48,34.48,0,0,1-7.88.86" transform="translate(-277.84 -2495.39)"></path><path d="M791.11,2870a3.77,3.77,0,0,1-1.14-.18c-13.12-4.3-31.74-11.42-41.92-23.61a3.67,3.67,0,0,1,5.63-4.71c9,10.75,26.31,17.33,38.57,21.34a3.67,3.67,0,0,1-1.14,7.16" transform="translate(-277.84 -2495.39)"></path><path d="M741.31,2908.74c-3,0-6-.13-9.24-.42a3.67,3.67,0,1,1,.66-7.31c18.87,1.7,33.51-2.48,52-7.76a3.67,3.67,0,0,1,2,7.06c-16.23,4.62-29.58,8.43-45.48,8.43" transform="translate(-277.84 -2495.39)"></path><path d="M729.78,2926.11c-1.56,0-3.06-.06-4.49-.19a3.67,3.67,0,1,1,.66-7.31c15.78,1.42,42.66-6.37,53.62-18.55A3.67,3.67,0,0,1,785,2905c-11.54,12.82-37.3,21.14-55.25,21.14" transform="translate(-277.84 -2495.39)"></path><path d="M806.86,3078.75a3.66,3.66,0,0,1-1.89-.53c-22.93-13.75-39.16-32.26-48.25-55a3.67,3.67,0,1,1,6.81-2.73c8.49,21.21,23.7,38.51,45.22,51.43a3.67,3.67,0,0,1-1.89,6.82" transform="translate(-277.84 -2495.39)"></path><path d="M818.13,3056.51a3.71,3.71,0,0,1-1.64-.38c-4.12-2.06-8.81-4-13.78-6.14-16.42-6.91-35-14.75-42.55-29.8a3.67,3.67,0,1,1,6.56-3.28c6.31,12.62,23.59,19.9,38.84,26.32,5.08,2.14,9.88,4.16,14.22,6.33a3.67,3.67,0,0,1-1.65,7" transform="translate(-277.84 -2495.39)"></path><path d="M838.8,3012.37a3.67,3.67,0,0,1-3.1-1.72c-4.47-7.06-20.27-17.85-33-26.51-6-4.07-11.6-7.92-15.7-11.1a3.67,3.67,0,0,1,4.51-5.79c3.91,3,9.46,6.82,15.33,10.83,13.94,9.51,29.74,20.3,35,28.65a3.68,3.68,0,0,1-3.1,5.64" transform="translate(-277.84 -2495.39)"></path><path d="M841.68,3007a3.64,3.64,0,0,1-2.86-1.38c-3.58-4.46-8.49-9.81-13.69-15.47-10.35-11.26-22.07-24-27.18-34.25a3.67,3.67,0,0,1,6.57-3.28c4.64,9.3,16,21.66,26,32.56,5.29,5.76,10.29,11.2,14,15.86a3.67,3.67,0,0,1-.58,5.16,3.63,3.63,0,0,1-2.29.8" transform="translate(-277.84 -2495.39)"></path><path d="M867.92,2942.85a3.7,3.7,0,0,1-2.6-1.07c-5.92-5.93-11.93-15.66-17.74-25.07-4.1-6.63-8-12.89-11.42-17.21a3.67,3.67,0,0,1,5.74-4.59c3.73,4.68,7.71,11.12,11.92,17.94,5.59,9.05,11.37,18.41,16.7,23.74a3.67,3.67,0,0,1-2.6,6.26" transform="translate(-277.84 -2495.39)"></path><path d="M877.49,2917.45a3.51,3.51,0,0,1-.72-.07C864.62,2915,851,2905.85,841,2899.21l-1.39-.94a3.67,3.67,0,0,1,4.07-6.11l1.4.94c9.44,6.31,22.37,14.94,33.09,17.08a3.67,3.67,0,0,1-.72,7.27" transform="translate(-277.84 -2495.39)"></path><path d="M890.75,2871.7a3.44,3.44,0,0,1-.89-.11c-11.62-2.9-20.49-11.78-28.32-19.62l-.57-.57a3.67,3.67,0,0,1,5.19-5.19l.57.57c7.51,7.51,15.26,15.28,24.91,17.69a3.67,3.67,0,0,1-.89,7.23" transform="translate(-277.84 -2495.39)"></path><path d="M896.72,2827.94a3.68,3.68,0,0,1-.73-.07c-6.42-1.28-11.64-4.56-16.7-7.73-1.41-.89-2.87-1.8-4.32-2.65a3.67,3.67,0,0,1,3.7-6.34c1.55.9,3.06,1.85,4.52,2.77,4.7,2.95,9.14,5.73,14.24,6.75a3.67,3.67,0,0,1-.71,7.27" transform="translate(-277.84 -2495.39)"></path><path d="M905.34,2783.52a3.86,3.86,0,0,1-1.16-.19,81.67,81.67,0,0,0-8.56-2.18,72,72,0,0,1-11.54-3.2,3.67,3.67,0,1,1,2.73-6.82,64.48,64.48,0,0,0,10.37,2.85,89.16,89.16,0,0,1,9.32,2.38,3.68,3.68,0,0,1-1.16,7.16" transform="translate(-277.84 -2495.39)"></path><path d="M902.11,2759.31c-2.3,0-5-.08-8.33-.34a3.67,3.67,0,0,1,.56-7.32,98.51,98.51,0,0,0,13.66.16c1.8-.09,3.66-.17,5.77-.17a3.67,3.67,0,0,1,0,7.34c-1.95,0-3.64.08-5.43.16s-3.9.17-6.23.17" transform="translate(-277.84 -2495.39)"></path><path d="M641.44,3038.13a3.67,3.67,0,0,1-2-6.72c16.16-10.78,27.16-18.37,34.06-23.32q-9.44,2.74-26.47,8.84c-2.28.82-4,1.45-5.06,1.78a3.67,3.67,0,1,1-2.32-7c1-.33,2.69-.94,4.9-1.73,35.8-12.8,41.07-12.85,44-10a3.76,3.76,0,0,1,1.08,3.06c-.2,2-.3,3.05-20.27,16.92-9.49,6.59-20.24,13.79-25.8,17.5a3.7,3.7,0,0,1-2,.61" transform="translate(-277.84 -2495.39)"></path><path d="M636.16,2971.53a3.67,3.67,0,0,1-1.82-6.86c9.81-5.6,22.51-9.23,34.8-12.74,9.37-2.68,18.21-5.2,24.36-8.28a3.67,3.67,0,1,1,3.28,6.57c-6.75,3.38-15.92,6-25.63,8.77-11.86,3.39-24.13,6.89-33.17,12.05a3.63,3.63,0,0,1-1.82.49" transform="translate(-277.84 -2495.39)"></path><path d="M638.78,2963.21a3.67,3.67,0,0,1-3.2-5.46c12.22-21.9,37.09-26.69,50.45-29.27,2-.38,3.67-.71,4.91-1a3.67,3.67,0,1,1,1.78,7.12c-1.44.36-3.23.71-5.3,1.11-12.19,2.35-34.88,6.72-45.43,25.63a3.66,3.66,0,0,1-3.21,1.89" transform="translate(-277.84 -2495.39)"></path><path d="M653.37,2892.26a3.67,3.67,0,1,1,0-7.34c6.9,0,13.92-.34,20.71-.66s14-.67,21.06-.67a3.67,3.67,0,1,1,0,7.34c-6.9,0-13.92.34-20.71.66s-14,.67-21.06.67" transform="translate(-277.84 -2495.39)"></path><path d="M694.48,2886.29a3.66,3.66,0,0,1-3.28-2c-3.75-7.49-16.81-12.67-26.35-16.45-3.44-1.36-6.69-2.65-9.2-3.9a3.67,3.67,0,1,1,3.28-6.57c2.23,1.11,5.34,2.35,8.62,3.65,11.24,4.45,25.21,10,30.21,20a3.66,3.66,0,0,1-1.64,4.92,3.53,3.53,0,0,1-1.64.39" transform="translate(-277.84 -2495.39)"></path><path d="M662,2827.94a3.67,3.67,0,1,1,0-7.34c5.56,0,10.94-1.1,16.64-2.26s11.67-2.38,17.84-2.38a3.67,3.67,0,0,1,0,7.34c-5.43,0-10.74,1.08-16.37,2.23-5.81,1.19-11.81,2.41-18.11,2.41" transform="translate(-277.84 -2495.39)"></path><path d="M662,2826a3.61,3.61,0,0,1-2-.62,3.66,3.66,0,0,1-1-5.09c5.35-8,15.13-13.22,23.75-17.78,2.13-1.13,4.14-2.2,6-3.26a3.67,3.67,0,1,1,3.64,6.37c-2,1.12-4,2.22-6.2,3.37-7.85,4.16-16.75,8.88-21.08,15.38a3.65,3.65,0,0,1-3,1.63" transform="translate(-277.84 -2495.39)"></path><path d="M658.67,2762.3a3.68,3.68,0,0,1,0-7.35,150.07,150.07,0,0,0,22-1.95,3.67,3.67,0,0,1,1,7.27,156.19,156.19,0,0,1-23.07,2" transform="translate(-277.84 -2495.39)"></path><path d="M657.34,2749.7a3.67,3.67,0,0,1-.55-7.3,49.56,49.56,0,0,0,13.92-4.06c1.67-.7,3.56-1.5,5.86-2.33a3.67,3.67,0,1,1,2.48,6.91c-2.1.76-3.82,1.48-5.48,2.19a56.94,56.94,0,0,1-15.66,4.55,3.64,3.64,0,0,1-.57,0" transform="translate(-277.84 -2495.39)"></path><path d="M619.56,3108.42A3.67,3.67,0,0,1,616,3104c1.35-6.76,8.43-20,16.84-35.31,1.35-2.44,2.77-5,3.94-7.22-8,3.76-19,16.59-24.94,23.45-2.44,2.84-4.37,5.08-5.86,6.57a3.67,3.67,0,1,1-5.19-5.19c1.3-1.3,3.24-3.56,5.49-6.17,13.48-15.64,26.48-29.45,37.42-26.71a3.82,3.82,0,0,1,2.53,2.14c1,2.24.38,3.33-6.95,16.67-5.91,10.75-14.84,27-16.08,33.21a3.67,3.67,0,0,1-3.59,3" transform="translate(-277.84 -2495.39)"></path><path d="M588.23,3028.89a3.39,3.39,0,0,1-2.42-1.1,5.9,5.9,0,0,1-1.72-4.55c.28-7.5,14-20.77,36.16-39.75,2.51-2.15,4.67-4,5.33-4.67a3.67,3.67,0,1,1,5.19,5.19c-.86.86-2.8,2.52-5.74,5-5.63,4.84-14.15,12.15-21.34,19.2-.9.88-1.73,1.71-2.5,2.5,6.29-3.55,12.75-6.67,19-9.69,2.95-1.42,6-2.89,9-4.37a3.67,3.67,0,1,1,3.29,6.57c-3,1.51-6.09,3-9.06,4.41-7.28,3.51-14.81,7.14-21.86,11.36a49.15,49.15,0,0,0-9.39,7.67c-.63.64-2.16,2.18-3.93,2.18" transform="translate(-277.84 -2495.39)"></path><path d="M579.11,2965.86a3.68,3.68,0,0,1-2.6-6.27c1.8-1.8,4.66-4.39,8-7.4,7.92-7.2,19.88-18.08,22.25-22.81a3.67,3.67,0,1,1,6.56,3.29c-2.75,5.51-12.44,14.56-23.87,24.95-3.25,3-6,5.49-7.72,7.16a3.63,3.63,0,0,1-2.59,1.08" transform="translate(-277.84 -2495.39)"></path><path d="M577.12,2950.61a3.67,3.67,0,0,1-1.37-7.08c5.74-2.3,10.87-5.57,16.3-9a141.34,141.34,0,0,1,12.6-7.42,3.67,3.67,0,1,1,3.28,6.56,134.5,134.5,0,0,0-11.94,7.05c-5.47,3.5-11.13,7.1-17.51,9.66a3.86,3.86,0,0,1-1.36.26" transform="translate(-277.84 -2495.39)"></path><path d="M569.83,2907.51a3.67,3.67,0,0,1-1.37-7.08c3.79-1.52,10.16-7.21,12.88-9.64,2.08-1.85,4.43-3.95,6.94-1.49s.58,4.74-2.12,7.86a3.65,3.65,0,0,1-2.35,1.25c-3.63,3.17-8.63,7.24-12.62,8.84a3.86,3.86,0,0,1-1.36.26" transform="translate(-277.84 -2495.39)"></path><path d="M559.52,2889.17a3.92,3.92,0,0,1-.76-.08,3.68,3.68,0,0,1-2.84-4.35c3.41-16.19,5.79-25,9.32-28.59a3.67,3.67,0,1,1,5.19,5.19c-2.64,2.64-5.8,17.68-7.32,24.91a3.68,3.68,0,0,1-3.59,2.92" transform="translate(-277.84 -2495.39)"></path><path d="M871.14,3087.71a3.71,3.71,0,0,1-1.64-.38,93.27,93.27,0,0,0-12.69-4.87c-5.37-1.77-10.93-3.6-16.15-6.59a3.67,3.67,0,0,1,3.65-6.37c4.57,2.61,9.54,4.25,14.8,6a100.1,100.1,0,0,1,13.67,5.27,3.67,3.67,0,0,1-1.64,6.95" transform="translate(-277.84 -2495.39)"></path><path d="M884.52,3071.23a3.51,3.51,0,0,1-.72-.07c-3.45-.69-8.23-2.1-13.3-3.6-7.91-2.35-17.76-5.26-22.61-5.26a3.67,3.67,0,1,1,0-7.34c5.91,0,15.46,2.82,24.69,5.56,4.91,1.45,9.54,2.82,12.66,3.44a3.67,3.67,0,0,1-.72,7.27" transform="translate(-277.84 -2495.39)"></path><path d="M883.82,3030.75c-2.45,0-6-.14-11.34-.52-9.11-.67-14.3-1.29-15.41-1.84a3.67,3.67,0,0,1,2.75-6.78c3.1.63,23.43,2.3,26.77,1.68a3.68,3.68,0,0,1,3,6.72c-.64.32-1.49.74-5.73.74" transform="translate(-277.84 -2495.39)"></path><path d="M893.85,3026.61a3.63,3.63,0,0,1-2.59-1.08c-2.88-2.87-7.29-4.62-12-6.47-6.27-2.49-12.76-5.06-16.62-10.85a3.67,3.67,0,1,1,6.11-4.07c2.59,3.88,7.75,5.93,13.22,8.09,5.15,2.05,10.49,4.16,14.44,8.11a3.68,3.68,0,0,1-2.6,6.27" transform="translate(-277.84 -2495.39)"></path><path d="M902,2979.57a3.67,3.67,0,0,1-1.17-.19c-2.34-.78-4.68-1.74-6.94-2.66-5.26-2.15-10.22-4.19-15.15-4.19a3.67,3.67,0,0,1,0-7.34c6.37,0,12.25,2.41,17.93,4.73,2.25.92,4.38,1.79,6.49,2.49a3.67,3.67,0,0,1-1.16,7.16" transform="translate(-277.84 -2495.39)"></path><path d="M879.79,2969.29A3.67,3.67,0,0,1,879,2962l1.37-.31c6.67-1.49,13.56-3,20.51-3a3.68,3.68,0,0,1,0,7.35c-6.14,0-12.63,1.44-18.91,2.85l-1.38.3a3.7,3.7,0,0,1-.8.09" transform="translate(-277.84 -2495.39)"></path><path d="M917.11,2916.3a3.47,3.47,0,0,1-.9-.11,61,61,0,0,1-13.72-5.15,3.67,3.67,0,1,1,3.28-6.56,54.22,54.22,0,0,0,12.22,4.59,3.67,3.67,0,0,1-.88,7.23" transform="translate(-277.84 -2495.39)"></path><path d="M925.22,2894.13H909.53a3.67,3.67,0,1,1,0-7.34h15.69a3.67,3.67,0,0,1,0,7.34" transform="translate(-277.84 -2495.39)"></path><path d="M925.76,2856.82a3.67,3.67,0,0,1-.89-7.23l1-.25a30.42,30.42,0,0,1,4.24-.88c1.11-.16,3-.43,6.95-1.09a3.67,3.67,0,0,1,1.21,7.24c-4,.67-6,.95-7.1,1.11a24.55,24.55,0,0,0-3.51.74l-1,.25a3.94,3.94,0,0,1-.89.11" transform="translate(-277.84 -2495.39)"></path><path d="M970.64,2962.8a3.67,3.67,0,1,1,0-7.34,70.45,70.45,0,0,0,21.16-3.1,3.67,3.67,0,0,1,2,7.06,78,78,0,0,1-23.18,3.38" transform="translate(-277.84 -2495.39)"></path><path d="M982,2983.35a45.76,45.76,0,0,1-21.1-5.25,3.67,3.67,0,1,1,3.28-6.57A38.62,38.62,0,0,0,982,2976a3.67,3.67,0,1,1,0,7.34" transform="translate(-277.84 -2495.39)"></path><path d="M940,3019.3a18.46,18.46,0,0,1-8.32-1.73A3.67,3.67,0,1,1,935,3011c4,2,11.48.37,18-1.09,4.6-1,8.94-2,12.76-2a3.67,3.67,0,0,1,0,7.34c-3,0-7,.89-11.16,1.82-4.94,1.1-10,2.23-14.6,2.23" transform="translate(-277.84 -2495.39)"></path><path d="M924.67,3034.72a3.67,3.67,0,0,1,0-7.34c10.2,0,32.56-7.19,35.46-15.88a3.67,3.67,0,1,1,7,2.32c-4.59,13.79-31.81,20.9-42.42,20.9" transform="translate(-277.84 -2495.39)"></path><path d="M929.54,3073.65a3.67,3.67,0,0,1-3.67-3.59c-.8-3.14-13.11-9.83-16.34-9.93a3.67,3.67,0,1,1,0-7.34c5,0,23.68,8.74,23.68,17.19a3.67,3.67,0,0,1-3.67,3.67" transform="translate(-277.84 -2495.39)"></path><path d="M913.62,3075.34c-5.19,0-10.4-.63-15.46-3.15a3.67,3.67,0,0,1,3.29-6.57c5.83,2.92,12.48,2.51,19.52,2.08,2.46-.15,5-.31,7.49-.31a3.67,3.67,0,0,1,0,7.34c-2.26,0-4.58.15-7,.3s-5.18.31-7.8.31" transform="translate(-277.84 -2495.39)"></path><path d="M524.41,2948.06a3.67,3.67,0,0,1-.11-7.34c1.71-.37,6.81-4.65,9.55-6.95,3.18-2.67,5.93-5,8-6a3.67,3.67,0,1,1,3.28,6.57,53.49,53.49,0,0,0-6.6,5.08c-6.42,5.4-10.58,8.67-14.16,8.67" transform="translate(-277.84 -2495.39)"></path><path d="M532.06,2971a3.67,3.67,0,0,1-2.6-6.26,89.52,89.52,0,0,1,13-10.18c2-1.35,4-2.75,5.92-4.19a3.67,3.67,0,1,1,4.4,5.87c-2,1.53-4.13,3-6.16,4.37a82.76,82.76,0,0,0-11.93,9.32,3.66,3.66,0,0,1-2.59,1.07" transform="translate(-277.84 -2495.39)"></path><path d="M550.54,3062.17a3.67,3.67,0,0,1-3.48-4.83c1.59-4.76,3.6-9.68,5.55-14.44,3.18-7.78,6.47-15.8,8-23.38-2.69,2.51-6.63,6.46-12.39,12.58-1,1.07-1.74,1.86-2.1,2.22a3.67,3.67,0,1,1-5.2-5.19c.34-.33,1-1.06,2-2.06,17.12-18.21,20.29-19.64,23.47-18.59,4.63,1.54,2.89,7.11,2,9.78-.1.31-.19.57-.23.75-1.5,8.89-5.2,17.93-8.78,26.67-2,4.86-3.87,9.46-5.37,14a3.68,3.68,0,0,1-3.49,2.51" transform="translate(-277.84 -2495.39)"></path><path d="M595.5,3102.22l-.39,0c-8.45-.91-18.29-4.15-26.2-6.75-3.63-1.19-6.77-2.22-9.06-2.79a3.67,3.67,0,0,1,1.78-7.13c2.55.64,5.81,1.71,9.57,2.95,7.58,2.49,17,5.59,24.69,6.42a3.67,3.67,0,0,1-.39,7.32" transform="translate(-277.84 -2495.39)"></path><path d="M554.15,3179.38a3.71,3.71,0,0,1-3.18-1.82l-.18-.12a5,5,0,0,1,.4-7.65,3,3,0,0,1,.41-.18l.8-1.2a3.67,3.67,0,0,1,6.54.88l1.32,3.94a3.67,3.67,0,0,1-1.85,4.44l-2.63,1.32a3.65,3.65,0,0,1-1.63.39" transform="translate(-277.84 -2495.39)"></path><path d="M608,3205.75a3.47,3.47,0,0,1-2.7-1.25c-1.82-2-.61-4.24,0-5.31.2-.38.47-.86.77-1.47a3.68,3.68,0,0,1,4.92-1.64,3.78,3.78,0,0,1,1.18.93,3.67,3.67,0,0,1,1,7.15c-1.12.38-1.95.71-2.55,1a6.89,6.89,0,0,1-2.56.63" transform="translate(-277.84 -2495.39)"></path><path d="M564.66,3242.47a3.66,3.66,0,0,1-3.28-2c-.33-.65-.59-1.09-.77-1.42a4.8,4.8,0,0,1,0-5.7c.18-.32.44-.77.77-1.42a3.67,3.67,0,1,1,6.56,3.28q-.29.57-.51,1,.23.42.51,1a3.66,3.66,0,0,1-1.64,4.92,3.53,3.53,0,0,1-1.64.39" transform="translate(-277.84 -2495.39)"></path><path d="M669.82,3153.08a3.66,3.66,0,0,1-3.28-2l-1.32-2.62a3.77,3.77,0,0,1-.38-1.65v-5.25a3.67,3.67,0,0,1,3.67-3.67h3.94a3.66,3.66,0,0,1,3.48,4.83l-1.31,3.94a3.72,3.72,0,0,1-1.27,1.77,3.66,3.66,0,0,1-3.53,4.68" transform="translate(-277.84 -2495.39)"></path><path d="M686.91,3224.07a3.68,3.68,0,0,1-3.06-1.64l-2.62-3.94a3.67,3.67,0,0,1,2.16-5.6l5.26-1.31a3.69,3.69,0,0,1,2.53.28l2.63,1.31a3.67,3.67,0,0,1-3.28,6.57h0a3.66,3.66,0,0,1-1.58,3.72,3.61,3.61,0,0,1-2,.62" transform="translate(-277.84 -2495.39)"></path><path d="M760.52,3183.32a3.68,3.68,0,0,1-3.56-2.78l-1.31-5.26a3.67,3.67,0,0,1,5.2-4.17l1,.49,1-.49a3.67,3.67,0,0,1,3.28,6.56l-2,1v.07a3.66,3.66,0,0,1-2.67,4.45,3.94,3.94,0,0,1-.89.11" transform="translate(-277.84 -2495.39)"></path><path d="M824.93,3238.53a3.7,3.7,0,0,1-2.82-1.32,3.81,3.81,0,0,1-1.45-.38,3.68,3.68,0,0,1-1.64-4.93c.31-.61.53-1.11.71-1.49.51-1.11,1.56-3.42,4.27-3.17s3.34,2.67,3.65,3.84c.16.63.39,1.48.76,2.62a3.66,3.66,0,0,1-2.32,4.64,3.57,3.57,0,0,1-1.16.19" transform="translate(-277.84 -2495.39)"></path><path d="M869.63,3180.69a3.67,3.67,0,0,1-3.29-2L865,3176a3.67,3.67,0,0,1,.69-4.24l2.63-2.62a3.66,3.66,0,0,1,5.87.95l1.32,2.63a3.67,3.67,0,0,1-1.64,4.92,3.52,3.52,0,0,1-.72.27,3.65,3.65,0,0,1-1.91,2.36,3.72,3.72,0,0,1-1.64.39" transform="translate(-277.84 -2495.39)"></path><path d="M897.23,3224.07a3.72,3.72,0,0,1-1.64-.39c-.38-.19-.71-.36-1-.52-.28.16-.61.33-1,.52a3.67,3.67,0,1,1-3.29-6.56c.65-.33,1.1-.59,1.42-.78a4.83,4.83,0,0,1,5.7,0c.33.19.77.45,1.42.78a3.67,3.67,0,0,1-1.64,7" transform="translate(-277.84 -2495.39)"></path><path d="M826.25,3151.77a5.84,5.84,0,0,1-4.6-7.94l1.31-2.63a3.66,3.66,0,0,1,2-1.79,4.15,4.15,0,0,1,.77-.2,3.65,3.65,0,0,1,1.87.22,3.49,3.49,0,0,1,.34.15l2.59,1.29a3.68,3.68,0,0,1-.6,6.81v.42a3.67,3.67,0,0,1-3.67,3.67" transform="translate(-277.84 -2495.39)"></path><path d="M826.25,3195.15a3.67,3.67,0,0,1-1.65-7l2.63-1.32a3.67,3.67,0,1,1,3.29,6.57l-2.63,1.31a3.59,3.59,0,0,1-1.64.39" transform="translate(-277.84 -2495.39)"></path><path d="M769.72,3230.64a3.65,3.65,0,0,1-3.67-3.67,3.67,3.67,0,0,1,6.27-2.59,3.64,3.64,0,0,1,1.07,2.59,3.65,3.65,0,0,1-3.67,3.67" transform="translate(-277.84 -2495.39)"></path><path d="M907.75,3163.6a3.47,3.47,0,0,1-.9-.11,3.67,3.67,0,0,1-2.67-4.45c.42-1.66.64-2.92.79-3.75.24-1.38.68-3.95,3.48-4.33s3.92,2,4.52,3.28l.69,1.42a3.66,3.66,0,0,1-1.64,4.92,3.52,3.52,0,0,1-.72.27,3.68,3.68,0,0,1-3.55,2.75" transform="translate(-277.84 -2495.39)"></path><path d="M734.23,3143.89a3.72,3.72,0,0,1-1.64-.39,3.68,3.68,0,0,1-1.64-4.93c.33-.67.55-1.15.7-1.5a5.42,5.42,0,0,1,3.39-3.38c.35-.16.82-.37,1.5-.7a3.67,3.67,0,0,1,3.28,6.56c-.67.34-1.17.57-1.56.74-.18.39-.41.9-.74,1.56a3.68,3.68,0,0,1-3.29,2" transform="translate(-277.84 -2495.39)"></path><path d="M697.42,3183.32a3.65,3.65,0,0,1-1.63-.39l-2.63-1.31a3.67,3.67,0,1,1,3.28-6.57l2.62,1.31a3.67,3.67,0,0,1-1.64,7" transform="translate(-277.84 -2495.39)"></path><path d="M621.19,3163.6a6.34,6.34,0,0,0-6.91-1.7,3.68,3.68,0,0,1-1.64-4.93l1.32-2.63a3.67,3.67,0,0,1,4.92-1.64l2.6,1.3a3.7,3.7,0,0,1,1.67,1.65h0l1.32,2.63a3.72,3.72,0,0,1,.39,1.64,3.68,3.68,0,0,1-2,3.28,3.59,3.59,0,0,1-1.64.39" transform="translate(-277.84 -2495.39)"></path><path d="M638.27,3237.21a3.71,3.71,0,0,1-1.64-.38l-2.63-1.32a3.67,3.67,0,0,1,3.28-6.57l2.63,1.32a3.67,3.67,0,0,1-1.64,6.95" transform="translate(-277.84 -2495.39)"></path><path d="M531.8,3217.5a3.67,3.67,0,0,1-1.64-7l1.44-.75a6.63,6.63,0,0,1,4.38-1c.51,0,1.25.06,2.39.06a3.67,3.67,0,1,1,0,7.34c-1.31,0-2.16,0-2.72-.06l-.28,0-.33.18c-.39.21-.9.48-1.6.83a3.72,3.72,0,0,1-1.64.39" transform="translate(-277.84 -2495.39)"></path><path d="M830,3297.92c-.76,0-1.44,0-2,0-28.28-.83-56.7-5.74-84.19-10.48-33.41-5.77-68-11.74-102.15-10.29-17.62.74-35.11,2.93-52,5-25.42,3.18-51.7,6.47-78.5,4.81a3.67,3.67,0,1,1,.45-7.33c26.11,1.61,50.9-1.48,77.14-4.76,17.06-2.13,34.7-4.34,52.62-5.09,35-1.49,69.91,4.55,103.71,10.38,27.23,4.7,55.39,9.56,83.16,10.38,17.47.52,90.16-5.47,99-16.2a3.67,3.67,0,1,1,5.66,4.68c-2,2.37-7.92,9.58-52.22,15.12-20.36,2.55-41.59,3.77-50.66,3.77" transform="translate(-277.84 -2495.39)"></path><path d="M850.53,3326a268.57,268.57,0,0,1-41.77-3.12c-12.8-2.09-27.44-5.34-43-8.79-21.74-4.84-44.22-9.84-62.43-11.71-62.24-6.41-148.1,3.93-190.62,12.43a3.67,3.67,0,1,1-1.44-7.19c37-7.4,124.83-19.54,192.82-12.54,18.62,1.91,41.32,7,63.27,11.84,15.39,3.43,29.94,6.66,42.53,8.72,33.18,5.42,91,4.89,115.69-13.26a3.67,3.67,0,0,1,4.35,5.92c-18.11,13.31-50.32,17.7-79.45,17.7" transform="translate(-277.84 -2495.39)"></path></svg>