<svg xmlns="http://www.w3.org/2000/svg" data-name="Isolation Mode" viewBox="0 0 836.88 1171.4"><defs><style>.cls-1{fill:#f6b08c;}</style></defs><title>wcu-1</title><path class="cls-1" d="M1386.86,2874c-2.88,35.48-4.69,71.36-8.3,106.95-14.09,138.58-56.32,282.5-12.82,419.94,47.86,151.18,225.35,291.81,414,280.56,261.18-15.57,409.93-213.65,403.53-473.37-2.81-114-4.19-218-15-342.05-17.37-199.8-176-330-423.76-354-112.55-10.9-220,44.48-287.25,133.64-51.74,68.62-63.85,147.43-70.41,228.31" transform="translate(-1346.58 -2510.72)"></path><path d="M1782.17,2969.3l-.47,0a3.67,3.67,0,0,1-3.17-4.11c1.52-11.77,1.55-39.24,0-61.44a3.51,3.51,0,0,1-.07-.72v-.28c-.8-11.23-2-21-3.6-26.55-1.86-6.38-7.2-13.69-11.91-20.14-1.92-2.61-3.72-5.08-5.23-7.39-13.76-21.1-29.36-45-40.55-68.16-9.9-20.48-14.28-44.61-17.91-67.58-2.44-15.44-6.75-49-10-75.45-1.83-15.15-3.33-28.23-4.34-37.85-.55-5.16-.94-9.19-1.16-12-.39-4.94-.55-7,2-8.17a3.76,3.76,0,0,1,4.37.93c6.41,7.37,13.06,14.71,20.1,22.49,41.32,45.63,88.16,97.35,93.5,165,1.92,24.33-2,48.54-5.69,72-.88,5.53-1.8,11.26-2.6,16.8a179.32,179.32,0,0,1-4.35,18.87c-2.54,9.54-5.17,19.41-5.31,26.88,1.64,23.46,1.44,52.27,0,63.69a3.67,3.67,0,0,1-3.64,3.2m-90.45-376.09c2.57,26,11,94.53,14.83,118.55,3.55,22.42,7.8,45.94,17.27,65.53,11,22.73,26.45,46.43,40.08,67.33,1.41,2.15,3.16,4.54,5,7.08,5.07,6.93,10.82,14.8,13,22.43.33,1.15.65,2.45,1,3.87.38-1.46.77-2.92,1.15-4.36a173.44,173.44,0,0,0,4.18-18c.82-5.59,1.73-11.35,2.62-16.91,3.68-23,7.47-46.77,5.62-70.22-5.15-65.19-51.09-115.93-91.62-160.7C1700.32,2602.79,1696,2598,1691.72,2593.21Z" transform="translate(-1346.58 -2510.72)"></path><path d="M1795.06,2968.05a3.67,3.67,0,0,1-3.65-3.34c-3.18-35.41.25-67.28,10.18-94.73a152.33,152.33,0,0,1,56.27-73.82c30.1-21.3,75.25-1.14,111.53,15.06,7.26,3.24,14.12,6.3,20.22,8.73,1.07.42,7.82,2.74,14.34,5,5.19,1.79,10.81,3.72,15.13,5.24,2.18.76,4,1.42,5.35,1.89,2.56.94,3.85,1.41,4.37,3.33a4.47,4.47,0,0,1-.8,3.88c-3.61,4.74-23.46,6.66-23.65,6.66-24.84-.07-50.53,4.09-75.37,8.14l-2.21.36c-31.29,5.1-73,19-96.23,42.82-6.85,7-12,16.11-17,24.89-4.72,8.31-9.59,16.9-15.87,23.53q.21,9,1,18.37a3.65,3.65,0,0,1-3.32,4l-.34,0m94.39-173.74c-10.12,0-19.45,2.25-27.35,7.85-41,29-63,74.27-64.41,131.89,3.33-4.7,6.35-10,9.48-15.53,5.21-9.18,10.6-18.68,18.11-26.38,24.48-25.08,67.87-39.66,100.31-44.95l2.21-.36c25.14-4.09,51.12-8.29,76.57-8.23a97.77,97.77,0,0,0,11.16-1.89c-4.38-1.53-9.73-3.37-14-4.83-8.33-2.86-13.49-4.65-14.66-5.11-6.25-2.48-13.17-5.57-20.5-8.85C1942.06,2807.05,1913.52,2794.31,1889.45,2794.31Z" transform="translate(-1346.58 -2510.72)"></path><path d="M1777.49,2968.83a3.68,3.68,0,0,1-3.6-2.95c-2.89-14.42-7.77-20-13.41-26.38-.82-.93-1.7-1.85-2.62-2.75-3-.84-9.2.85-12.72,2.47-24.48,11.26-44.66,13.82-67.5,8.57-49.66-11.42-80-62.18-106.66-107-4.3-7.21-8.37-14-12.49-20.65-1.17-1.88-3.9-5.52-7.06-9.74-11.55-15.41-20.38-27.68-20.38-33.8a3.67,3.67,0,0,1,2.22-3.37c2.21-1,3.7.44,4.69,1.36l2,1.92,7.09,6.7c12.94,12.23,34.6,32.7,39.63,36.94.91.77,91.56,77,125.63,84.8,12.16,2.79,35.12,12,49.63,25.56a8.06,8.06,0,0,1,3.34,3.38c.22.24.45.49.66.74,6.92,7.86,12,14.6,15.1,29.78a3.66,3.66,0,0,1-3.6,4.39M1549.87,2796c2.81,3.9,5.55,7.55,7.44,10.07,3.39,4.53,6.08,8.11,7.41,10.26,4.16,6.7,8.24,13.53,12.56,20.77,26,43.53,55.4,92.86,102,103.57,21.4,4.93,39.59,2.58,62.78-8.08a45,45,0,0,1,7.61-2.56c-12.58-9-28.87-15.54-39-17.86-35.78-8.23-125-83.15-128.73-86.34C1577.76,2822.22,1562.43,2807.81,1549.87,2796Z" transform="translate(-1346.58 -2510.72)"></path><path d="M1783.65,2969.53c-11.68,0-33.19-1.15-44.86-8.92a3.67,3.67,0,0,1,4.07-6.11c7.7,5.13,24,8,43.49,7.67,20.24-.33,32-3.79,33.53-5.47a3.63,3.63,0,0,1,5.09-.89,3.7,3.7,0,0,1,.89,5.14c-5.22,7.48-33.09,8.43-38.62,8.55-1,0-2.26,0-3.59,0" transform="translate(-1346.58 -2510.72)"></path><path d="M1758.61,3613.64c-38.52,0-76.9-6.3-104.25-17.24-21.86-8.76-48.88-74.05-56.64-93.85-19.5-49.73-32.6-100-33.36-128-1.5-54.59,36.51-157.42,59.29-213.86,18.74-46.45,46-77.15,70-104.24,22.75-25.65,42.4-47.8,48.56-76.66.1-.47-.58-1.35-1.7-2.73-2.9-3.58-7.3-9-4.17-20.49a3.67,3.67,0,1,1,7.08,1.93c-2.14,7.86.37,10.95,2.79,13.94,1.79,2.2,4,4.94,3.18,8.88-6.56,30.75-26.81,53.58-50.25,80-23.63,26.64-50.42,56.84-68.68,102.11-39,96.54-59.85,171.45-58.76,210.92.74,27.23,13.64,76.49,32.85,125.51,19.39,49.47,40,84.69,52.54,89.7,61.6,24.66,168.23,21.57,200.17-5.8,20.18-17.3,53.08-65.6,61.29-95.21,8.47-30.49,6.28-73.69,5.75-82-.18-3-.39-6.59-.63-10.63-3.93-66.91-15.88-270.55-74-331.59a176.32,176.32,0,0,0-18.74-16.9c-16.55-13.36-24.11-19.46-23.22-69.53.08-4.2,3-6.46,5.38-8.28,2.86-2.2,5.57-4.28,5.72-10.2a3.67,3.67,0,1,1,7.34.19c-.24,9.42-5.26,13.28-8.58,15.83-1.7,1.31-2.51,2-2.52,2.6-.83,46.47,5,51.16,20.49,63.68a184.75,184.75,0,0,1,19.45,17.55c25.69,27,45.57,83.06,59.07,166.63,10.9,67.41,15,136.43,16.9,169.59.23,4,.44,7.59.63,10.6.54,8.56,2.78,52.84-6,84.46-8.53,30.75-42.67,80.88-63.59,98.83-16.53,14.16-50.72,23-93.82,24.15-3.2.08-6.41.13-9.61.13" transform="translate(-1346.58 -2510.72)"></path><path d="M1822.54,2962.62a3.51,3.51,0,0,1-.72-.07,3.68,3.68,0,0,1-2.94-3.23c-.88-.65-4-2.34-14.41-4.24a376.43,376.43,0,0,0-43.6-3.36h-.14c-3.76,0-15.18,0-17.81,7.51a3.67,3.67,0,0,1-6.93-2.43c2.89-8.24,11.21-12.42,24.73-12.42h.15c14.69,0,39.41,2.47,44.93,3.48,11.45,2.1,17.26,4.36,19.43,7.55a5.54,5.54,0,0,1,.91,4.26,3.68,3.68,0,0,1-3.6,2.95" transform="translate(-1346.58 -2510.72)"></path><path d="M1682.42,3603.26a3.67,3.67,0,0,1-3.48-2.52c-2.6-7.79-9.79-21.59-16.75-34.93-6.72-12.9-13.07-25.08-15.91-32.86-4.72-13-11.52-26.12-18.72-40-15.16-29.25-30.84-59.5-27.69-91,1.22-12.17,3.47-24.37,5.64-36.18,1.81-9.8,3.67-19.94,4.93-29.94,1.37-10.94,2-20.88,2.59-30.5,1.64-26.45,3.06-49.28,19-79.07,7.91-14.82,15.79-31.32,24.13-48.79,12.86-26.93,26.16-54.79,41.86-81.56,4.86-8.28,10-16.48,14.89-24.41,21.88-35.2,42.55-68.45,41.14-105.15a3.67,3.67,0,1,1,7.34-.28c1.5,38.95-19.75,73.12-42.25,109.31-4.9,7.89-10,16.05-14.78,24.24-15.55,26.51-28.78,54.22-41.58,81-8.38,17.54-16.29,34.11-24.27,49.08-15.14,28.38-16.51,50.48-18.11,76.06-.6,9.74-1.23,19.8-2.63,31-1.28,10.22-3.16,20.46-5,30.36-2.14,11.66-4.36,23.71-5.55,35.58-2.94,29.37,12.23,58.63,26.9,86.93,7.31,14.11,14.22,27.43,19.1,40.88,2.67,7.32,9.21,19.85,15.52,32,7.09,13.6,14.42,27.67,17.2,36a3.67,3.67,0,0,1-2.32,4.64,3.61,3.61,0,0,1-1.16.19" transform="translate(-1346.58 -2510.72)"></path><path d="M1723,3610.59a3.67,3.67,0,0,1-3.67-3.67c0-22-8.89-42.07-18.31-63.27-5-11.18-10.1-22.74-13.82-34.64-4.12-13.17-9.07-25.79-13.86-38-12.15-31-23.62-60.19-22-96.64s12.88-71.39,23.73-105.19c1.82-5.65,3.7-11.5,5.5-17.24,2.73-8.76,5.31-17.85,7.8-26.65,6.3-22.21,12.81-45.17,22.74-66.26,7-14.88,14.72-29.21,22.18-43.07,10.71-19.88,21.78-40.43,30.57-62.39,5.78-14.48,5.61-35,5.44-54.8-.09-10.72-.17-20.85.62-30.24a3.67,3.67,0,0,1,7.31.61c-.76,9.05-.67,19-.58,29.57.17,20.53.35,41.76-6,57.59-9,22.34-20.12,43.09-30.92,63.15-7.42,13.77-15.09,28-22,42.7-9.67,20.55-16.1,43.22-22.31,65.14-2.51,8.85-5.11,18-7.87,26.84-1.8,5.77-3.69,11.63-5.51,17.3-10.71,33.33-21.78,67.8-23.38,103.27-1.59,34.89,9.6,63.42,21.45,93.63,4.84,12.33,9.84,25.07,14,38.49,3.59,11.5,8.64,22.86,13.52,33.85,9.31,21,18.94,42.66,18.94,66.25a3.67,3.67,0,0,1-3.67,3.67" transform="translate(-1346.58 -2510.72)"></path><path d="M1780,3612a3.68,3.68,0,0,1-3.14-5.57c12.46-20.65,19.85-47.93,21.14-55.53,7.76-46.62,5.84-106.32-5.28-163.77-1.89-9.77-4.2-19.91-6.42-29.71-4.32-19-8.78-38.65-10.8-57.77-2.92-27.73,2.66-54,8.06-79.36,3.06-14.39,6.22-29.26,7.79-44.23,1.66-15.79-.52-32.38-2.62-48.43-1-7.75-2.07-15.75-2.67-23.54-1.4-18.19-.66-39.77.12-62.62.89-26.22,1.82-53.34-.82-74.42a3.67,3.67,0,1,1,7.29-.91c2.7,21.66,1.77,49.07.86,75.58-.77,22.64-1.5,44-.13,61.81.59,7.59,1.62,15.5,2.63,23.14,2.16,16.47,4.39,33.5,2.64,50.16-1.61,15.35-4.81,30.41-7.91,45-5.52,26-10.74,50.5-7.94,77.07,2,18.69,6.39,38.12,10.66,56.92,2.24,9.85,4.55,20.05,6.46,29.93,11.28,58.28,13.22,118.92,5.32,166.38-1,5.93-8.08,34.88-22.09,58.11A3.68,3.68,0,0,1,1780,3612" transform="translate(-1346.58 -2510.72)"></path><path d="M1825.39,3601.39a3.85,3.85,0,0,1-1.16-.18,3.67,3.67,0,0,1-2.32-4.65l2.54-7.61c24.68-74,50.2-150.46,47.45-227.49-.46-12.83-2.94-25.61-5.35-38-2.17-11.22-4.43-22.82-5.21-34.54-3.5-52.53-8-108.69-17.13-163.41-1.2-7.23-4.89-14.14-8.46-20.82-1-1.93-2.1-3.93-3.07-5.87-10.69-21.37-12.28-48.27-12.28-62.39a3.67,3.67,0,0,1,7.34,0c0,13.48,1.49,39.08,11.5,59.11.93,1.85,1.93,3.72,3,5.69,3.85,7.21,7.84,14.66,9.23,23.08,9.18,55,13.7,111.4,17.21,164.12.76,11.27,3,22.64,5.1,33.63,2.46,12.64,5,25.71,5.48,39.12,2.8,78.35-22.94,155.48-47.83,230.07l-2.54,7.61a3.66,3.66,0,0,1-3.48,2.51" transform="translate(-1346.58 -2510.72)"></path></svg>