<svg xmlns="http://www.w3.org/2000/svg" data-name="Layer 1" viewBox="0 0 59.11 36.08"><defs><style>.cls-1{fill:#2e3449;}.cls-2{font-size:9px;fill:#72675f;font-family:Baskerville;}</style></defs><title>logo-black</title><path class="cls-1" d="M541.08,259.53c0-2.86-.65-4.08-2.33-4.08a3.13,3.13,0,0,0-2.71,1.61,3.52,3.52,0,0,1,.19.52,6.71,6.71,0,0,1,.17,1.49v6.82c0,1.17.5,1.68,1.34,1.68h-4.51c.84,0,1.35-.51,1.35-1.68v-6.36c0-2.86-.37-4.08-2-4.08a2.7,2.7,0,0,0-2.65,2.23v8.21c0,1.17.51,1.68,1.35,1.68h-4.51c.84,0,1.34-.51,1.34-1.68V257.1c0-.4-.19-.67-.6-.67l2.62-.86a3.16,3.16,0,0,0-.2,1.25,3.39,3.39,0,0,1,3-1.64,3.21,3.21,0,0,1,3,1.64,3.62,3.62,0,0,1,3.22-1.64,3.53,3.53,0,0,1,3.76,3.89v6.82c0,1.17.51,1.68,1.35,1.68h-4.51c.84,0,1.34-.51,1.34-1.68Z" transform="translate(-526.73 -247.23)"></path><path class="cls-1" d="M545.57,267.57c.84,0,1.34-.51,1.34-1.68V257.1c0-.4-.19-.67-.6-.67l2.62-.86a3.65,3.65,0,0,0-.2,1.53v8.79c0,1.17.51,1.68,1.35,1.68Z" transform="translate(-526.73 -247.23)"></path><path class="cls-1" d="M560.4,259.53c0-2.86-.6-4.08-2.74-4.08a2.76,2.76,0,0,0-3,2.23v8.21c0,1.17.5,1.68,1.34,1.68h-4.51c.84,0,1.34-.51,1.34-1.68V257.1c0-.4-.19-.67-.6-.67l2.62-.86a3.07,3.07,0,0,0-.19,1.25,3.67,3.67,0,0,1,3.36-1.64c2.18,0,4.17,1.18,4.17,3.89v6.82c0,1.17.51,1.68,1.35,1.68h-4.52c.84,0,1.35-.51,1.35-1.68Z" transform="translate(-526.73 -247.23)"></path><path class="cls-1" d="M565.75,264.18v-8.37h-1v-.24h1v-.91c0-.41-.19-.68-.6-.68l2.62-.86a3.72,3.72,0,0,0-.2,1.54v.91h2v.24h-2v7.89c0,3,.29,3.6,1.52,3.87C567.5,267.57,565.75,267.26,565.75,264.18Z" transform="translate(-526.73 -247.23)"></path><path class="cls-1" d="M570.41,267.57c.84,0,1.34-.51,1.34-1.68V257.1c0-.4-.19-.67-.6-.67l2.62-.86a3.65,3.65,0,0,0-.2,1.53v8.79c0,1.17.51,1.68,1.35,1.68Zm2.25-16.23a1.24,1.24,0,1,1-1.25,1.23A1.24,1.24,0,0,1,572.66,251.34Z" transform="translate(-526.73 -247.23)"></path><path class="cls-1" d="M576.12,261.57c0-3.91,2.18-6.39,4.84-6.39s4.64,2.33,4.64,5.79H578v.6c0,3.53,2.26,5.64,4.13,5.64a3.89,3.89,0,0,0,3.72-2.28,4.15,4.15,0,0,1-4.32,3C578.45,268,576.12,265.34,576.12,261.57Zm7.63-.84c0-3.17-.79-5.28-2.79-5.28s-2.83,2.21-3,5.28Z" transform="translate(-526.73 -247.23)"></path><text class="cls-2" transform="translate(3.56 32.99)">arts &amp; crafting</text><path class="cls-1" d="M546,250.91a1.83,1.83,0,0,0,1.79.69,1,1,0,0,1,.77,1.17.73.73,0,0,1-1.28.36.58.58,0,0,1-.09-.44.42.42,0,0,1,.73-.22.3.3,0,0,1,0,.36.24.24,0,0,0-.35-.09.24.24,0,0,0,0,.42.48.48,0,0,0,.42-.06.55.55,0,0,0,.13-.78.7.7,0,0,0-1.23.31.83.83,0,0,0,.13.65,1,1,0,0,0,1.34.21,1.2,1.2,0,0,0-.09-2,7.2,7.2,0,0,0,1-.31.87.87,0,0,0,.83.95c.25,0,.59-.11.94-.11s.43.13.55.08a.16.16,0,0,0,.07-.09c0-.06,0-.09-.06-.19a2.4,2.4,0,0,0-.72-.77.14.14,0,1,0-.15.23,2.21,2.21,0,0,1,.49.47,5.42,5.42,0,0,0-1.06.1.6.6,0,0,1-.59-.77,1.51,1.51,0,0,1,.7,0,.15.15,0,0,0,.17-.1.15.15,0,0,0-.11-.17l-.15,0c.47-.24.54-.32,1.08-.58a.85.85,0,0,0,.56,1c.33.13.9,0,1.31.39a.14.14,0,0,0,.23-.13,2.54,2.54,0,0,0-.32-.84,1.8,1.8,0,0,0-.94-.77,4.67,4.67,0,0,1,1.38-.28.84.84,0,0,0,0,1.12c.22.28.77.48,1,1a.14.14,0,0,0,.26,0,2.46,2.46,0,0,0,.11-1.13.14.14,0,0,0-.16-.12.15.15,0,0,0-.12.16,1.83,1.83,0,0,1,0,.66c-.26-.36-.67-.55-.82-.73a.6.6,0,0,1,.19-.93,1.43,1.43,0,0,1,.49.52.14.14,0,0,0,.24-.13,1.67,1.67,0,0,0-.18-.28,1.41,1.41,0,0,1,.69.5.14.14,0,0,0,.23-.15,1.76,1.76,0,0,0-1-.68,1.7,1.7,0,0,0,.75-1.14,2.27,2.27,0,0,0,0-.89.14.14,0,0,0-.26,0c-.26.48-.83.58-1.1.81a.85.85,0,0,0-.14,1.18,5.15,5.15,0,0,0-1.73.37,2,2,0,0,0,.17-.52A.13.13,0,0,0,552,249a.13.13,0,0,0-.16.11,1.48,1.48,0,0,1-.29.64.6.6,0,0,1-.48-.81,8.54,8.54,0,0,0,.52-1,2.18,2.18,0,0,1,.24.63.14.14,0,0,0,.16.12.16.16,0,0,0,.11-.17,2.46,2.46,0,0,0-.49-1,.14.14,0,0,0-.25.09c0,.54-.44.91-.56,1.25a.85.85,0,0,0,.48,1.1c-.21.1-.42.21-.64.34h0a8,8,0,0,1-.83.44,1.77,1.77,0,0,0-.3-1.43,2.67,2.67,0,0,0-.64-.62.14.14,0,0,0-.21.16c.16.51-.15,1-.16,1.36a.86.86,0,0,0,.53.85c-1,.33-2.19.55-2.75-.28a.14.14,0,0,0-.2,0A.14.14,0,0,0,546,250.91Zm8-2.59a6.38,6.38,0,0,0,.93-.58,1.53,1.53,0,0,1-.9,1.53A.6.6,0,0,1,554,248.32Zm-2.29,1.73h0a1.53,1.53,0,0,1,1.37,1.13A8.51,8.51,0,0,0,552,251,.61.61,0,0,1,551.68,250.05Zm-2.93.15a9.41,9.41,0,0,0,.21-1.08,1.55,1.55,0,0,1,.5,1.71A.6.6,0,0,1,548.75,250.2Z" transform="translate(-526.73 -247.23)"></path></svg>